<svg width="8" height="8" viewBox="0 0 8 8" fill="none" xmlns="http://www.w3.org/2000/svg">
<path d="M2.52709 7.55626C1.68452 7.55626 0.924916 7.04872 0.602426 6.27031C0.279935 5.4919 0.458063 4.59588 1.05376 4L1.93793 3.11583L2.52709 3.705L1.64334 4.58875C1.32753 4.90456 1.2042 5.36486 1.31979 5.79626C1.43538 6.22766 1.77235 6.56463 2.20375 6.68022C2.63515 6.79581 3.09545 6.67248 3.41126 6.35667L4.29501 5.47292L4.88418 6.0625L4.00043 6.94625C3.61046 7.33814 3.07995 7.55778 2.52709 7.55626ZM2.82168 5.7675L2.23251 5.17833L5.17876 2.23208L5.76793 2.82125L2.82209 5.76708L2.82168 5.7675ZM6.06293 4.88375L5.47334 4.29458L6.35709 3.41083C6.6772 3.09597 6.80384 2.63361 6.68886 2.19958C6.57388 1.76554 6.23494 1.42652 5.80093 1.31144C5.36692 1.19635 4.90453 1.32288 4.58959 1.64292L3.70543 2.52667L3.11626 1.9375L4.00043 1.05333C4.81504 0.24582 6.12917 0.248698 6.94024 1.05977C7.75131 1.87085 7.75419 3.18497 6.94668 3.99958L6.06293 4.88333V4.88375Z" fill="#79819A"/>
</svg>
