<svg width="4" height="5" viewBox="0 0 4 5" fill="none" xmlns="http://www.w3.org/2000/svg">
<path d="M2 5.00001C1.68423 4.73067 1.39155 4.43539 1.125 4.11726C0.725001 3.63951 0.25 2.92801 0.25 2.25001C0.249646 1.5419 0.676062 0.90336 1.33027 0.632362C1.98447 0.361364 2.73752 0.511323 3.238 1.01226C3.56712 1.33991 3.75148 1.78561 3.75001 2.25001C3.75001 2.92801 3.275 3.63951 2.875 4.11726C2.60845 4.43539 2.31577 4.73067 2 5.00001ZM2 1.50001C1.73205 1.50001 1.48446 1.64296 1.35048 1.87501C1.21651 2.10706 1.21651 2.39296 1.35048 2.62501C1.48446 2.85706 1.73205 3.00001 2 3.00001C2.41421 3.00001 2.75 2.66423 2.75 2.25001C2.75 1.8358 2.41421 1.50001 2 1.50001Z" fill="white"/>
</svg>
