<svg width="19" height="20" viewBox="0 0 19 20" fill="none" xmlns="http://www.w3.org/2000/svg">
<path d="M1 4.9C1 3.99826 1.35821 3.13346 1.99584 2.49584C2.63346 1.85821 3.49826 1.5 4.4 1.5H14.6C15.5017 1.5 16.3665 1.85821 17.0042 2.49584C17.6418 3.13346 18 3.99826 18 4.9V15.1C18 16.0017 17.6418 16.8665 17.0042 17.5042C16.3665 18.1418 15.5017 18.5 14.6 18.5H4.4C3.49826 18.5 2.63346 18.1418 1.99584 17.5042C1.35821 16.8665 1 16.0017 1 15.1V4.9Z" stroke="white" stroke-width="1.5" stroke-linecap="round" stroke-linejoin="round"/>
<path d="M6.95001 13.825V7.26304C6.95002 7.07355 7.01334 6.8895 7.12992 6.74011C7.2465 6.59073 7.40965 6.48458 7.59346 6.43854L12.6935 5.16354C12.8188 5.13214 12.9496 5.12973 13.076 5.15649C13.2024 5.18324 13.3211 5.23847 13.4229 5.31795C13.5248 5.39744 13.6072 5.49911 13.6639 5.61522C13.7206 5.73133 13.75 5.85883 13.75 5.98804V12.55" stroke="white" stroke-width="1.5" stroke-linecap="round" stroke-linejoin="round"/>
<path d="M6.95001 9.14998L13.75 7.44998" stroke="white" stroke-width="1.5"/>
<path d="M5.67502 15.1C6.37919 15.1 6.95002 14.5292 6.95002 13.825C6.95002 13.1209 6.37919 12.55 5.67502 12.55C4.97086 12.55 4.40002 13.1209 4.40002 13.825C4.40002 14.5292 4.97086 15.1 5.67502 15.1Z" stroke="white" stroke-width="1.5"/>
<path d="M12.475 14.25C13.1792 14.25 13.75 13.6791 13.75 12.975C13.75 12.2708 13.1792 11.7 12.475 11.7C11.7708 11.7 11.2 12.2708 11.2 12.975C11.2 13.6791 11.7708 14.25 12.475 14.25Z" stroke="white" stroke-width="1.5"/>
</svg>
