<svg width="8" height="8" viewBox="0 0 8 8" fill="none" xmlns="http://www.w3.org/2000/svg">
<path d="M6.91564 7.33333C3.3608 7.33837 0.662888 4.60812 0.666691 1.08438C0.666691 0.854261 0.853239 0.666667 1.08336 0.666667H2.18309C2.38958 0.666667 2.56499 0.818388 2.59531 1.02264C2.66798 1.51217 2.81051 1.98874 3.01856 2.43779L3.06137 2.53021C3.12091 2.65871 3.08055 2.81139 2.9653 2.8937C2.62473 3.13691 2.49457 3.62648 2.75989 4.00848C3.09284 4.48785 3.51254 4.90746 3.9918 5.24026C4.37378 5.50551 4.86327 5.37537 5.10648 5.03485C5.18884 4.91954 5.34161 4.87917 5.47019 4.93873L5.56218 4.98134C6.01126 5.18937 6.48787 5.33191 6.97745 5.40456C7.18171 5.43488 7.33335 5.61028 7.33335 5.81678V6.91666C7.33335 7.14678 7.14635 7.33333 6.91623 7.33332L6.91564 7.33333Z" fill="#79819A"/>
</svg>
