<svg width="15" height="16" viewBox="0 0 15 16" fill="none" xmlns="http://www.w3.org/2000/svg">
<circle cx="7.5" cy="8" r="6.375" stroke="white" stroke-width="1.41667" stroke-linecap="round" stroke-linejoin="round"/>
<path d="M8.20832 1.65906C7.96181 1.86652 7.73972 2.11136 7.55077 2.39186C6.45796 4.01413 6.88716 6.21513 8.50943 7.30794C8.63748 7.3942 8.76914 7.47098 8.90358 7.53843C10.3333 8.25583 10.8792 7.28894 11.6533 7.81039C12.1554 8.14864 12.2882 8.8299 11.95 9.33202C11.5955 9.85823 11.0416 10.125 11.1375 10.9869C11.1916 11.4733 11.4904 11.8925 11.8777 12.25" stroke="white" stroke-width="1.41667" stroke-linecap="round" stroke-linejoin="round"/>
<path d="M3.8209 7.38088L3.25549 7.80755L3.8209 7.38088ZM5.62753 11.3911L6.19295 10.9644L5.62753 11.3911ZM4.52345 9.80653L5.22935 9.86524L4.52345 9.80653ZM5.14789 10.9415L5.53623 10.3491L5.14789 10.9415ZM2.0008 5.38512C1.62069 5.29262 1.23757 5.52577 1.14507 5.90588C1.05256 6.28598 1.28572 6.66911 1.66582 6.76161L2.0008 5.38512ZM4.90335 13.4504C4.61147 13.7108 4.58602 14.1586 4.84649 14.4505C5.10696 14.7424 5.55473 14.7678 5.84661 14.5073L4.90335 13.4504ZM3.25549 7.80755C3.69248 8.38664 3.87331 9.0774 3.81756 9.74783L5.22935 9.86524C5.31286 8.86115 5.04111 7.82194 4.38632 6.95422L3.25549 7.80755ZM4.75955 11.5339C4.8722 11.6077 4.97494 11.7022 5.06212 11.8178L6.19295 10.9644C6.00626 10.717 5.78317 10.511 5.53623 10.3491L4.75955 11.5339ZM3.81756 9.74783C3.75317 10.522 4.23808 11.192 4.75955 11.5339L5.53623 10.3491C5.31346 10.203 5.21998 9.97792 5.22935 9.86524L3.81756 9.74783ZM1.66582 6.76161C2.27914 6.91086 2.84539 7.26409 3.25549 7.80755L4.38632 6.95422C3.77215 6.14033 2.92015 5.60885 2.0008 5.38512L1.66582 6.76161ZM5.06212 11.8178C5.44456 12.3246 5.36849 13.0353 4.90335 13.4504L5.84661 14.5073C6.8573 13.6054 7.0232 12.0647 6.19295 10.9644L5.06212 11.8178Z" fill="white"/>
</svg>
